<?xml version="1.0" encoding="UTF-8"?>
<svg width="447px" height="100px" viewBox="0 0 447 100" version="1.1" xmlns="http://www.w3.org/2000/svg" xmlns:xlink="http://www.w3.org/1999/xlink">
    <title>Logo / Lock-up / Horizontal / White</title>
    <g id="Logo-/-Lock-up-/-Horizontal-/-White" stroke="none" stroke-width="1" fill="none" fill-rule="evenodd">
        <g id="Group-19" fill="#FFFFFF">
            <g id="Fill-1" transform="translate(0.000000, 2.485784)">
                <path d="M61.3218092,68.5920917 C75.8159232,68.5920917 88.8050651,60.9460054 93.7666976,46.1001335 C94.1569238,44.9839165 94.6584573,44.425808 95.3833488,44.425808 C96.6097739,44.425808 97,46.3233769 97,48.7790542 C97,76.0707455 76.7080545,97 48.8343866,97 C21.1281444,97 0,76.3497998 0,48.6116217 C0,20.8176328 21.2953841,0 49.7820787,0 C73.084526,0 90.6447026,13.8969014 90.6447026,32.3704786 C90.6447026,46.658242 79.9413569,57.0390599 65.9487764,57.0390599 C52.9598203,57.0390599 43.1482342,48.2209458 43.1482342,35.9425589 C43.1482342,31.0310182 44.7091388,26.287096 47.7194548,22.5477691 C49.169052,20.7618219 50.6182776,19.8130375 51.3989157,19.8130375 C52.0678748,19.8130375 52.2351146,20.371146 51.9563816,21.2641196 C51.6217163,22.2687149 51.3989157,23.3849318 51.3989157,24.7802031 C51.3989157,30.3054771 56.0258829,34.3796691 61.8235285,34.3796691 C68.1786401,34.3796691 72.6942999,29.5241252 72.6942999,23.4407427 C72.6942999,15.571413 65.0010843,9.65527691 54.5205391,9.65527691 C38.9672398,9.65527691 28.0964684,22.7152016 28.0964684,38.2866146 C28.0964684,56.64857 43.2039808,68.5920917 61.3218092,68.5920917"></path>
            </g>
            <g id="Fill-1-Copy" transform="translate(114.950490, 0.483539)">
                <path d="M31.0157778,83 C48.6914361,83 62.0315555,70.0700809 62.0315555,52.8301887 C62.0315555,35.5902965 48.6914361,22.6603774 31.0157778,22.6603774 C13.3401195,22.6603774 0,35.5902965 0,52.8301887 C0,70.0700809 13.3401195,83 31.0157778,83 M31.0157778,70.6226415 C21.0106882,70.6226415 14.1182931,63.328841 14.1182931,52.8301887 C14.1182931,42.3315364 21.0106882,35.0377358 31.0157778,35.0377358 C41.0208674,35.0377358 47.9132624,42.3315364 47.9132624,52.8301887 C47.9132624,63.328841 41.0208674,70.6226415 31.0157778,70.6226415 M125.842535,73.2749326 C119.505978,79.9056604 111.057236,83 102.386158,83 C84.9328351,83 71.2592126,70.4016173 71.2592126,52.8301887 C71.2592126,35.0377358 85.3775057,22.6603774 102.386158,22.6603774 C113.72526,22.6603774 121.284661,27.8544474 124.953194,31.0592992 C125.731367,31.722372 125.731367,32.8827493 125.064361,33.7115903 L119.283643,40.8948787 C118.616637,41.7789757 117.449376,42.1105121 116.615619,41.3369272 C112.28008,37.2479784 108.166877,35.148248 102.386158,35.148248 C92.0475655,35.148248 85.3775057,42.6630728 85.3775057,52.8301887 C85.3775057,62.9973046 92.0475655,70.5121294 102.386158,70.5121294 C107.944541,70.5121294 112.391248,68.5229111 116.837954,63.9919137 C117.894047,62.8867925 118.894556,62.9973046 119.728313,63.8814016 L125.731367,70.5121294 C126.620708,71.4514825 126.620708,72.3908356 125.842535,73.2749326 M155.912646,83 C165.139562,83 170.030939,80.0161725 173.588305,76.8113208 C174.032975,76.3692722 174.588814,76.3692722 174.588814,77.0876011 L174.588814,80.2371968 C174.588814,81.4528302 175.25582,82.115903 176.367496,82.115903 L185.594412,82.115903 C186.594921,82.115903 187.261927,81.4528302 187.261927,80.3477089 L187.261927,44.2102426 C187.261927,30.2857143 178.424098,22.6603774 162.249203,22.6603774 C151.799443,22.6603774 143.573036,26.1967655 137.569982,32.4407008 C136.791808,33.2695418 136.847392,34.0983827 137.68115,34.8719677 L143.906539,40.8948787 C144.629129,41.6132075 145.51847,41.6132075 146.352227,40.8948787 C150.576599,36.5849057 155.690311,34.4851752 161.582197,34.4851752 C168.474592,34.4851752 173.143634,37.745283 173.143634,42.5525606 C173.143634,44.8733154 171.809622,45.8679245 168.141089,46.0889488 L155.023305,46.9730458 C148.242078,47.4150943 143.795371,48.851752 140.460341,51.2830189 C136.124802,54.3773585 133.567946,59.0188679 133.567946,64.4339623 C133.567946,75.7614555 142.350192,83 155.912646,83 M158.469503,71.6725067 C151.91061,71.6725067 147.575072,68.6334232 147.575072,64.212938 C147.575072,60.2345013 150.354263,57.8584906 155.690311,57.361186 L165.139562,56.532345 C168.252257,56.2560647 171.031448,55.8140162 172.143125,55.5929919 C173.032466,55.4272237 173.477137,55.703504 173.477137,56.4218329 L173.477137,60.1239892 C173.477137,66.8652291 167.251748,71.6725067 158.469503,71.6725067 M226.836133,83 C231.505174,83 235.396043,82.115903 238.84224,80.3477089 C240.954426,79.3530997 242.621941,78.0269542 244.178288,76.8113208 C244.734126,76.3692722 245.067629,76.4797844 245.067629,77.032345 L245.067629,80.2371968 C245.067629,81.4528302 245.734635,82.115903 246.846312,82.115903 L257.184904,82.115903 C258.296581,82.115903 258.963587,81.4528302 258.963587,80.3477089 L258.963587,2.76819407 C258.963587,1.66307278 258.185413,1 257.184904,1 L246.846312,1 C245.734635,1 245.067629,1.66307278 245.067629,2.76819407 L245.067629,28.8490566 C245.067629,29.5121294 244.622959,29.4016173 244.400623,29.180593 C240.065084,24.9811321 234.173198,22.6603774 226.9473,22.6603774 C210.827989,22.6603774 197.821373,34.9272237 197.821373,52.8301887 C197.821373,71.1752022 210.383319,83 226.836133,83 M228.725983,70.6226415 C218.832061,70.6226415 211.939666,63.328841 211.939666,52.8301887 C211.939666,42.3315364 218.832061,35.0377358 228.725983,35.0377358 C238.619905,35.0377358 245.5123,42.3315364 245.5123,52.8301887 C245.5123,63.328841 238.619905,70.6226415 228.725983,70.6226415 M300.984222,83 C318.659881,83 332,70.0700809 332,52.8301887 C332,35.5902965 318.659881,22.6603774 300.984222,22.6603774 C283.308564,22.6603774 269.968444,35.5902965 269.968444,52.8301887 C269.968444,70.0700809 283.308564,83 300.984222,83 M300.984222,70.6226415 C290.979133,70.6226415 284.086738,63.328841 284.086738,52.8301887 C284.086738,42.3315364 290.979133,35.0377358 300.984222,35.0377358 C310.989312,35.0377358 317.881707,42.3315364 317.881707,52.8301887 C317.881707,63.328841 310.989312,70.6226415 300.984222,70.6226415"></path>
            </g>
        </g>
    </g>
</svg>